<svg width="221" height="72" viewBox="0 0 221 72" fill="none" xmlns="http://www.w3.org/2000/svg">
<path d="M0 0H186C205.33 0 221 15.67 221 35V37C221 56.33 205.33 72 186 72H0V0Z" fill="#3a823f"/>
<path d="M56.1002 31.28C55.9202 31.08 55.5402 30.82 54.9602 30.5C54.3802 30.16 53.6802 29.86 52.8602 29.6C52.0602 29.32 51.2302 29.18 50.3702 29.18C48.1102 29.18 46.9802 29.98 46.9802 31.58C46.9802 32.16 47.1602 32.62 47.5202 32.96C47.8802 33.3 48.4202 33.59 49.1402 33.83C49.8602 34.07 50.7602 34.33 51.8402 34.61C53.2402 34.97 54.4502 35.39 55.4702 35.87C56.5102 36.35 57.3002 36.99 57.8402 37.79C58.4002 38.57 58.6802 39.61 58.6802 40.91C58.6802 42.43 58.3102 43.66 57.5702 44.6C56.8502 45.52 55.8902 46.19 54.6902 46.61C53.4902 47.03 52.1902 47.24 50.7902 47.24C49.1902 47.24 47.6002 47 46.0202 46.52C44.4602 46.02 43.0702 45.34 41.8502 44.48L43.6802 40.91C43.8602 41.09 44.1802 41.33 44.6402 41.63C45.1002 41.91 45.6602 42.2 46.3202 42.5C46.9802 42.78 47.7002 43.02 48.4802 43.22C49.2602 43.42 50.0502 43.52 50.8502 43.52C53.1302 43.52 54.2702 42.79 54.2702 41.33C54.2702 40.71 54.0402 40.21 53.5802 39.83C53.1202 39.45 52.4702 39.13 51.6302 38.87C50.8102 38.61 49.8502 38.32 48.7502 38C47.3902 37.62 46.2602 37.2 45.3602 36.74C44.4802 36.26 43.8202 35.67 43.3802 34.97C42.9402 34.25 42.7202 33.34 42.7202 32.24C42.7202 30.78 43.0602 29.56 43.7402 28.58C44.4402 27.58 45.3802 26.83 46.5602 26.33C47.7402 25.81 49.0502 25.55 50.4902 25.55C51.9702 25.55 53.3502 25.79 54.6302 26.27C55.9102 26.75 57.0102 27.3 57.9302 27.92L56.1002 31.28ZM67.8087 47.3C66.1087 47.3 64.6387 46.93 63.3987 46.19C62.1787 45.45 61.2287 44.47 60.5487 43.25C59.8687 42.01 59.5287 40.67 59.5287 39.23C59.5287 37.75 59.8587 36.39 60.5187 35.15C61.1987 33.89 62.1587 32.89 63.3987 32.15C64.6387 31.39 66.1187 31.01 67.8387 31.01C69.5587 31.01 71.0287 31.39 72.2487 32.15C73.4687 32.89 74.3987 33.88 75.0387 35.12C75.6987 36.34 76.0287 37.66 76.0287 39.08C76.0287 39.6 75.9987 40.05 75.9387 40.43H63.7887C63.8887 41.65 64.3387 42.61 65.1387 43.31C65.9587 44.01 66.8987 44.36 67.9587 44.36C68.7587 44.36 69.5087 44.17 70.2087 43.79C70.9287 43.39 71.4187 42.87 71.6787 42.23L75.1287 43.19C74.5487 44.39 73.6187 45.38 72.3387 46.16C71.0587 46.92 69.5487 47.3 67.8087 47.3ZM63.6987 37.88H71.9187C71.7987 36.7 71.3487 35.75 70.5687 35.03C69.8087 34.29 68.8787 33.92 67.7787 33.92C66.6987 33.92 65.7687 34.29 64.9887 35.03C64.2287 35.75 63.7987 36.7 63.6987 37.88ZM76.4977 42.35C76.4977 41.33 76.7777 40.44 77.3377 39.68C77.9177 38.9 78.7177 38.3 79.7377 37.88C80.7577 37.46 81.9277 37.25 83.2477 37.25C83.9077 37.25 84.5777 37.31 85.2577 37.43C85.9377 37.53 86.5277 37.68 87.0277 37.88V37.04C87.0277 36.04 86.7277 35.27 86.1277 34.73C85.5477 34.19 84.6777 33.92 83.5177 33.92C82.6577 33.92 81.8377 34.07 81.0577 34.37C80.2777 34.67 79.4577 35.11 78.5977 35.69L77.3077 33.05C78.3477 32.37 79.4077 31.86 80.4877 31.52C81.5877 31.18 82.7377 31.01 83.9377 31.01C86.1777 31.01 87.9177 31.57 89.1577 32.69C90.4177 33.81 91.0477 35.41 91.0477 37.49V42.5C91.0477 42.94 91.1177 43.25 91.2577 43.43C91.3977 43.59 91.6477 43.69 92.0077 43.73V47C91.6477 47.08 91.3177 47.13 91.0177 47.15C90.7377 47.19 90.4977 47.21 90.2977 47.21C89.4977 47.21 88.8877 47.03 88.4677 46.67C88.0477 46.31 87.7977 45.87 87.7177 45.35L87.6277 44.54C86.9277 45.44 86.0677 46.13 85.0477 46.61C84.0477 47.07 83.0177 47.3 81.9577 47.3C80.8977 47.3 79.9577 47.09 79.1377 46.67C78.3177 46.23 77.6677 45.64 77.1877 44.9C76.7277 44.14 76.4977 43.29 76.4977 42.35ZM86.2777 43.16C86.7777 42.68 87.0277 42.22 87.0277 41.78V40.19C85.9877 39.77 84.9377 39.56 83.8777 39.56C82.8177 39.56 81.9577 39.79 81.2977 40.25C80.6377 40.69 80.3077 41.28 80.3077 42.02C80.3077 42.62 80.5477 43.16 81.0277 43.64C81.5077 44.12 82.1977 44.36 83.0977 44.36C83.6977 44.36 84.2777 44.25 84.8377 44.03C85.4177 43.81 85.8977 43.52 86.2777 43.16ZM103.264 34.76C102.044 34.76 100.954 35 99.9942 35.48C99.0342 35.94 98.3442 36.61 97.9242 37.49V47H93.9042V31.28H97.5942V34.64C98.1342 33.56 98.8342 32.71 99.6942 32.09C100.574 31.47 101.494 31.13 102.454 31.07C102.874 31.07 103.144 31.08 103.264 31.1V34.76ZM111.721 47.3C110.021 47.3 108.551 46.92 107.311 46.16C106.071 45.4 105.111 44.4 104.431 43.16C103.751 41.92 103.411 40.58 103.411 39.14C103.411 37.68 103.741 36.33 104.401 35.09C105.081 33.85 106.041 32.86 107.281 32.12C108.521 31.38 109.991 31.01 111.691 31.01C113.411 31.01 114.871 31.38 116.071 32.12C117.291 32.86 118.201 33.83 118.801 35.03L114.871 36.23C114.171 35.03 113.101 34.43 111.661 34.43C110.881 34.43 110.181 34.63 109.561 35.03C108.941 35.41 108.451 35.96 108.091 36.68C107.731 37.38 107.551 38.2 107.551 39.14C107.551 40.06 107.731 40.88 108.091 41.6C108.471 42.3 108.971 42.86 109.591 43.28C110.211 43.68 110.901 43.88 111.661 43.88C112.381 43.88 113.041 43.71 113.641 43.37C114.261 43.01 114.691 42.56 114.931 42.02L118.861 43.22C118.321 44.4 117.421 45.38 116.161 46.16C114.921 46.92 113.441 47.3 111.721 47.3ZM135.044 47H131.024V38.18C131.024 36.96 130.784 36.05 130.304 35.45C129.844 34.85 129.204 34.55 128.384 34.55C127.884 34.55 127.364 34.69 126.824 34.97C126.304 35.25 125.824 35.64 125.384 36.14C124.964 36.62 124.654 37.18 124.454 37.82V47H120.434V25.1H124.454V34.19C125.034 33.19 125.824 32.41 126.824 31.85C127.824 31.29 128.914 31.01 130.094 31.01C131.434 31.01 132.464 31.31 133.184 31.91C133.904 32.51 134.394 33.28 134.654 34.22C134.914 35.16 135.044 36.15 135.044 37.19V47Z" fill="white"/>
</svg>
