<svg width="52" height="51" viewBox="0 0 52 51" fill="none" xmlns="http://www.w3.org/2000/svg">
<path d="M51.1574 25.5C51.1574 11.4166 39.7056 0 25.5787 0C11.4519 0 0 11.4166 0 25.5C0 38.2284 9.35524 48.7801 21.5879 50.6973V32.866H15.0956V25.5H21.5879V19.8782C21.5879 13.4924 25.4052 9.96071 31.2468 9.96071C34.0519 9.96071 36.9727 10.4652 36.9727 10.4652V16.7357H33.7483C30.5672 16.7357 29.584 18.6962 29.584 20.7142V25.5H36.6835L35.5557 32.866H29.5984V50.6829C41.8022 48.7801 51.1574 38.2284 51.1574 25.5Z" fill="#4E647E"/>
<path d="M35.5411 32.866L36.669 25.5H29.5694V20.7142C29.5694 18.6962 30.5671 16.7357 33.7337 16.7357H36.9581V10.4652C36.9581 10.4652 34.0373 9.96071 31.2322 9.96071C25.3906 9.96071 21.5733 13.4924 21.5733 19.8782V25.5H15.0811V32.866H21.5733V50.6829C22.8747 50.8847 24.2049 51 25.5641 51C26.9233 51 28.2536 50.8991 29.5549 50.6829V32.866H35.5411Z" fill="white"/>
</svg>
