<svg width="50" height="49" viewBox="0 0 50 49" fill="none" xmlns="http://www.w3.org/2000/svg">
<path d="M49.0259 24.5C49.0259 10.9689 38.0512 0 24.5129 0C10.9747 0 0 10.9689 0 24.5C0 36.7292 8.96544 46.8672 20.6884 48.7092V31.5772H14.4666V24.5H20.6884V19.0986C20.6884 12.9633 24.3466 9.5701 29.9448 9.5701C32.6331 9.5701 35.4322 10.0548 35.4322 10.0548V16.0794H32.3421C29.2936 16.0794 28.3513 17.963 28.3513 19.9019V24.5H35.1551L34.0742 31.5772H28.3652V48.6953C40.0604 46.8672 49.0259 36.7292 49.0259 24.5Z" fill="white"/>
<path d="M34.0602 31.5772L35.141 24.5H28.3373V19.9019C28.3373 17.963 29.2934 16.0794 32.3281 16.0794H35.4182V10.0548C35.4182 10.0548 32.6191 9.5701 29.9308 9.5701C24.3326 9.5701 20.6744 12.9633 20.6744 19.0986V24.5H14.4526V31.5772H20.6744V48.6953C21.9215 48.8892 23.1964 49 24.4989 49C25.8015 49 27.0763 48.9031 28.3234 48.6953V31.5772H34.0602Z" fill="#4E647E"/>
</svg>
