<svg width="51" height="49" viewBox="0 0 51 49" fill="none" xmlns="http://www.w3.org/2000/svg">
<path d="M25.491 49C39.0291 49 50.0039 38.031 50.0039 24.5C50.0039 10.969 39.0291 0 25.491 0C11.9528 0 0.978027 10.969 0.978027 24.5C0.978027 38.031 11.9528 49 25.491 49Z" fill="white"/>
<path d="M33.1125 15.2346C32.1841 15.2346 31.422 15.9825 31.422 16.9242C31.422 17.8522 32.1702 18.6139 33.1125 18.6139C34.0409 18.6139 34.8031 17.866 34.8031 16.9242C34.7892 15.9825 34.0409 15.2346 33.1125 15.2346Z" fill="#4E647E"/>
<path d="M25.616 17.3951C21.7084 17.3951 18.5351 20.5667 18.5351 24.4723C18.5351 28.3779 21.7084 31.5495 25.616 31.5495C29.5237 31.5495 32.6969 28.3779 32.6969 24.4723C32.6969 20.5667 29.5237 17.3951 25.616 17.3951ZM25.616 29.0011C23.1218 29.0011 21.0848 26.9652 21.0848 24.4723C21.0848 21.9794 23.1218 19.9435 25.616 19.9435C28.1103 19.9435 30.1472 21.9794 30.1472 24.4723C30.1472 26.9652 28.1103 29.0011 25.616 29.0011Z" fill="#4E647E"/>
<path d="M31.228 38.8344H19.7545C14.9877 38.8344 11.1216 34.9565 11.1216 30.206V18.7386C11.1216 13.9743 14.9877 10.1102 19.7545 10.1102H31.228C35.9948 10.1102 39.8609 13.9743 39.8609 18.7386V30.206C39.8747 34.9565 35.9948 38.8344 31.228 38.8344ZM19.7545 12.8109C16.4842 12.8109 13.8237 15.47 13.8237 18.7386V30.206C13.8237 33.4746 16.4842 36.1337 19.7545 36.1337H31.228C34.4982 36.1337 37.1588 33.4746 37.1588 30.206V18.7386C37.1588 15.47 34.4982 12.8109 31.228 12.8109H19.7545V12.8109Z" fill="#4E647E"/>
</svg>
