<svg width="53" height="51" viewBox="0 0 53 51" fill="none" xmlns="http://www.w3.org/2000/svg">
<path d="M26.4688 51C40.5956 51 52.0475 39.5833 52.0475 25.5C52.0475 11.4167 40.5956 0 26.4688 0C12.3421 0 0.890137 11.4167 0.890137 25.5C0.890137 39.5833 12.3421 51 26.4688 51Z" fill="#4E647E"/>
<path d="M34.4218 15.8564C33.453 15.8564 32.6577 16.6348 32.6577 17.615C32.6577 18.5808 33.4385 19.3737 34.4218 19.3737C35.3905 19.3737 36.1858 18.5952 36.1858 17.615C36.1713 16.6348 35.3905 15.8564 34.4218 15.8564Z" fill="white"/>
<path d="M26.5992 18.1051C22.5217 18.1051 19.2104 21.4062 19.2104 25.4712C19.2104 29.5362 22.5217 32.8372 26.5992 32.8372C30.6768 32.8372 33.988 29.5362 33.988 25.4712C33.988 21.4062 30.6768 18.1051 26.5992 18.1051ZM26.5992 30.1848C23.9965 30.1848 21.871 28.0658 21.871 25.4712C21.871 22.8765 23.9965 20.7575 26.5992 20.7575C29.2019 20.7575 31.3274 22.8765 31.3274 25.4712C31.3274 28.0658 29.2019 30.1848 26.5992 30.1848Z" fill="white"/>
<path d="M32.4552 40.4194H20.4828C15.5088 40.4194 11.4746 36.3833 11.4746 31.4389V19.5034C11.4746 14.5447 15.5088 10.5229 20.4828 10.5229H32.4552C37.4293 10.5229 41.4634 14.5447 41.4634 19.5034V31.4389C41.4779 36.3833 37.4293 40.4194 32.4552 40.4194ZM20.4828 13.3338C17.0704 13.3338 14.2942 16.1015 14.2942 19.5034V31.4389C14.2942 34.8409 17.0704 37.6085 20.4828 37.6085H32.4552C35.8676 37.6085 38.6439 34.8409 38.6439 31.4389V19.5034C38.6439 16.1015 35.8676 13.3338 32.4552 13.3338H20.4828V13.3338Z" fill="white"/>
</svg>
