<svg width="16" height="12" viewBox="0 0 16 12" fill="none" xmlns="http://www.w3.org/2000/svg">
<path d="M13.3333 1.33325H2.66659C1.93021 1.33325 1.33325 1.93021 1.33325 2.66659V9.33325C1.33325 10.0696 1.93021 10.6666 2.66659 10.6666H13.3333C14.0696 10.6666 14.6666 10.0696 14.6666 9.33325V2.66659C14.6666 1.93021 14.0696 1.33325 13.3333 1.33325Z" stroke="#3E526A" stroke-width="1.5" stroke-linecap="round" stroke-linejoin="bevel"/>
<path d="M2 2L7.20667 7.20667C7.3305 7.33064 7.47755 7.42898 7.63941 7.49608C7.80128 7.56318 7.97478 7.59772 8.15 7.59772C8.32522 7.59772 8.49872 7.56318 8.66059 7.49608C8.82245 7.42898 8.9695 7.33064 9.09333 7.20667L14.28 2" stroke="#3E526A" stroke-width="1.5" stroke-linecap="round" stroke-linejoin="bevel"/>
</svg>
