<svg width="22" height="22" viewBox="0 0 22 22" fill="none" xmlns="http://www.w3.org/2000/svg">
<path d="M11 0C4.92509 0 0 4.92509 0 11C0 17.0749 4.92509 22 11 22C17.0749 22 22 17.0749 22 11C22 4.92509 17.0749 0 11 0ZM10.7568 16.2958C10.8394 16.3548 10.928 16.3843 11.0201 16.3843C11.1771 16.3843 11.3341 16.3347 11.4911 16.2367C11.9066 15.9936 12.4048 15.552 12.9868 14.9146L13.4578 15.1117C12.0625 16.8423 10.5809 17.7077 9.01084 17.7077C8.41114 17.7077 7.93067 17.5896 7.57062 17.3523C7.22 17.1091 7.04411 16.8034 7.04411 16.4351C7.04411 16.1919 7.12202 15.8826 7.27903 15.5072L9.20562 10.7899C9.38978 10.3366 9.48304 9.9942 9.48304 9.764C9.48304 9.6188 9.39569 9.49131 9.21979 9.37916C9.04389 9.26701 8.80425 9.21152 8.49968 9.21152C8.36156 9.21152 8.19511 9.21507 8.0015 9.22097L8.18212 8.82668L12.877 8.28364H13.7081L10.8678 15.2994C10.7108 15.7008 10.6329 15.964 10.6329 16.0892C10.6317 16.1612 10.673 16.2308 10.7568 16.2958ZM14.2889 6.22129C13.8923 6.50461 13.4118 6.6451 12.8487 6.6451C12.295 6.6451 11.8193 6.50343 11.4226 6.22129C11.026 5.93797 10.8265 5.5968 10.8265 5.19543C10.8265 4.79405 11.0201 4.45171 11.4085 4.16956C11.8051 3.88624 12.2856 3.74576 12.8487 3.74576C13.4212 3.74576 13.9017 3.88742 14.2889 4.16956C14.6856 4.45289 14.8851 4.79405 14.8851 5.19543C14.8839 5.5968 14.6856 5.93915 14.2889 6.22129Z" fill="#54A858"/>
</svg>
