<svg width="22" height="22" viewBox="0 0 22 22" fill="none" xmlns="http://www.w3.org/2000/svg">
<path d="M11 0C4.92509 0 0 4.92509 0 11C0 17.0749 4.92509 22 11 22C17.0749 22 22 17.0749 22 11C22 4.92509 17.0749 0 11 0ZM16.8117 7.47972L11.1853 16.0313C11.0661 16.2131 10.8737 16.3359 10.6588 16.369C10.6211 16.3749 10.5821 16.3772 10.5443 16.3772C10.3672 16.3772 10.1937 16.3158 10.0556 16.2013L6.99099 13.6715C6.66398 13.4012 6.61794 12.9183 6.88828 12.5913C7.15862 12.2643 7.64145 12.2183 7.96845 12.4874L10.3731 14.4731L15.5296 6.63565C15.7622 6.2815 16.2391 6.18352 16.5921 6.41608C16.9462 6.64982 17.0442 7.12556 16.8117 7.47972Z" fill="white"/>
</svg>
