<svg width="51" height="49" viewBox="0 0 51 49" fill="none" xmlns="http://www.w3.org/2000/svg">
<path d="M25.509 49C39.0471 49 50.0219 38.031 50.0219 24.5C50.0219 10.969 39.0471 0 25.509 0C11.9709 0 0.996094 10.969 0.996094 24.5C0.996094 38.031 11.9709 49 25.509 49Z" fill="white"/>
<path d="M39.047 16.1071C38.2017 16.4949 37.2594 16.7304 36.3449 16.8827C36.7745 16.8135 37.4119 16.024 37.6752 15.7055C38.0631 15.2207 38.3957 14.6668 38.5759 14.0712C38.6036 14.0297 38.6174 13.9604 38.5759 13.9327C38.5204 13.905 38.4788 13.9189 38.4373 13.9466C37.4119 14.5006 36.3587 14.8884 35.2363 15.1792C35.1393 15.2069 35.07 15.1792 35.0146 15.1238C34.9176 15.013 34.8345 14.9161 34.7375 14.833C34.2663 14.4313 33.7536 14.1128 33.1855 13.8773C32.4372 13.5726 31.6197 13.448 30.8021 13.4895C30.0123 13.5449 29.2363 13.7665 28.5434 14.1266C27.8367 14.4867 27.2132 14.9992 26.7143 15.6085C26.2016 16.2456 25.8136 16.9935 25.6196 17.7829C25.4256 18.5447 25.4533 19.3064 25.5642 20.082C25.578 20.2066 25.5642 20.2343 25.4533 20.2066C21.0468 19.5557 17.4024 17.9768 14.4371 14.5975C14.3123 14.4452 14.2431 14.4452 14.1322 14.6114C12.8297 16.5503 13.4671 19.6803 15.0883 21.2038C15.31 21.4115 15.5318 21.6193 15.7673 21.7993C15.6842 21.8132 14.6033 21.7024 13.6472 21.2038C13.5225 21.1207 13.4532 21.1622 13.4394 21.3146C13.4255 21.5223 13.4394 21.7162 13.4809 21.9517C13.7304 23.9183 15.0883 25.7465 16.959 26.4528C17.1807 26.5497 17.4302 26.6328 17.6657 26.6744C17.2362 26.7713 16.8066 26.8406 15.5872 26.7436C15.4348 26.7159 15.3793 26.7852 15.4348 26.9375C16.3493 29.4305 18.3309 30.1784 19.8136 30.6077C20.0076 30.6354 20.2154 30.6354 20.4094 30.6908C20.3955 30.7046 20.3817 30.7046 20.3678 30.7323C19.8828 31.4802 18.1646 32.0342 17.3747 32.3112C15.9336 32.8098 14.3539 33.0452 12.8297 32.8929C12.5802 32.8513 12.5387 32.8652 12.4694 32.8929C12.4001 32.9344 12.4555 32.9898 12.5387 33.0591C12.8435 33.2668 13.1622 33.4469 13.4809 33.6131C14.4509 34.1255 15.4625 34.541 16.5156 34.8318C21.9752 36.3414 28.1277 35.2335 32.2155 31.1617C35.4303 27.9624 36.5666 23.5582 36.5666 19.1402C36.5666 18.974 36.7745 18.8771 36.8853 18.7801C37.7167 18.1569 38.3957 17.3951 39.0193 16.5642C39.1578 16.3703 39.1578 16.2041 39.1578 16.1348C39.1578 16.121 39.1578 16.1071 39.1578 16.1071C39.1578 16.0379 39.1578 16.0517 39.047 16.1071Z" fill="#4E647E"/>
</svg>
