<svg width="53" height="51" viewBox="0 0 53 51" fill="none" xmlns="http://www.w3.org/2000/svg">
<path d="M26.5311 51C40.6578 51 52.1098 39.5833 52.1098 25.5C52.1098 11.4167 40.6578 0 26.5311 0C12.4044 0 0.952393 11.4167 0.952393 25.5C0.952393 39.5833 12.4044 51 26.5311 51Z" fill="#4E647E"/>
<path d="M40.658 16.7646C39.776 17.1682 38.7927 17.4132 37.8384 17.5718C38.2866 17.4997 38.9518 16.6781 39.2265 16.3465C39.6314 15.842 39.9784 15.2654 40.1664 14.6456C40.1953 14.6023 40.2097 14.5302 40.1664 14.5014C40.1085 14.4726 40.0651 14.487 40.0218 14.5158C38.9518 15.0924 37.8529 15.496 36.6816 15.7988C36.5804 15.8276 36.5081 15.7988 36.4503 15.7411C36.3491 15.6258 36.2623 15.5249 36.1611 15.4384C35.6695 15.0204 35.1345 14.6888 34.5417 14.4438C33.7608 14.1266 32.9077 13.9969 32.0546 14.0401C31.2305 14.0978 30.4207 14.3284 29.6977 14.7032C28.9603 15.078 28.3096 15.6114 27.7891 16.2456C27.2541 16.9087 26.8492 17.6871 26.6468 18.5088C26.4444 19.3016 26.4733 20.0944 26.589 20.9016C26.6034 21.0314 26.589 21.0602 26.4733 21.0314C21.8752 20.3539 18.0724 18.7106 14.9781 15.1933C14.8479 15.0348 14.7756 15.0348 14.66 15.2077C13.3008 17.2258 13.9659 20.4836 15.6577 22.0693C15.889 22.2855 16.1204 22.5017 16.3662 22.6891C16.2794 22.7035 15.1516 22.5882 14.1539 22.0693C14.0238 21.9828 13.9515 22.026 13.937 22.1846C13.9225 22.4008 13.937 22.6026 13.9804 22.8477C14.2406 24.8946 15.6577 26.7973 17.6097 27.5325C17.841 27.6334 18.1013 27.7199 18.3471 27.7631C17.8989 27.8641 17.4506 27.9361 16.1782 27.8352C16.0191 27.8064 15.9613 27.8785 16.0192 28.037C16.9735 30.6317 19.0412 31.4101 20.5883 31.857C20.7908 31.8858 21.0076 31.8858 21.2101 31.9435C21.1956 31.9579 21.1812 31.9579 21.1667 31.9867C20.6606 32.7651 18.8677 33.3417 18.0435 33.63C16.5397 34.149 14.8913 34.394 13.3008 34.2354C13.0405 34.1922 12.9971 34.2066 12.9248 34.2354C12.8525 34.2787 12.9104 34.3364 12.9971 34.4084C13.3152 34.6247 13.6478 34.812 13.9804 34.985C14.9925 35.5184 16.0481 35.9508 17.147 36.2535C22.844 37.8248 29.264 36.6716 33.5295 32.4336C36.8841 29.1037 38.0697 24.5198 38.0697 19.9214C38.0697 19.7484 38.2866 19.6475 38.4023 19.5466C39.2699 18.898 39.9784 18.1051 40.6291 17.2403C40.7737 17.0384 40.7737 16.8655 40.7737 16.7934C40.7737 16.779 40.7737 16.7646 40.7737 16.7646C40.7737 16.6925 40.7737 16.7069 40.658 16.7646Z" fill="white"/>
</svg>
