<svg width="70" height="70" viewBox="0 0 70 70" fill="none" xmlns="http://www.w3.org/2000/svg">
<path d="M70 35C70 54.33 54.33 70 35 70C15.67 70 0 54.33 0 35C0 15.67 15.67 0 35 0C54.33 0 70 15.67 70 35Z" fill="#3a823f" fill-opacity="0.07"/>
<path fill-rule="evenodd" clip-rule="evenodd" d="M34.0557 27C33.4778 27 32.9315 27.2205 32.5352 27.6005C32.1402 27.9792 31.9266 28.4835 31.9266 29V41C31.9266 41.5165 32.1402 42.0208 32.5352 42.3995C32.9315 42.7795 33.4778 43 34.0557 43H44.5292V27H34.0557ZM31.1511 26.1568C31.9283 25.4116 32.9739 25 34.0557 25H46.5292V45H34.0557C32.9739 45 31.9283 44.5884 31.1511 43.8432C30.3723 43.0966 29.9266 42.0748 29.9266 41V29C29.9266 27.9252 30.3723 26.9034 31.1511 26.1568Z" fill="#3a823f"/>
<path fill-rule="evenodd" clip-rule="evenodd" d="M34.0557 39C33.4778 39 32.9315 39.2205 32.5352 39.6005C32.1402 39.9792 31.9266 40.4835 31.9266 41V42H29.9266V41C29.9266 39.9252 30.3723 38.9034 31.1511 38.1568C31.9283 37.4116 32.9739 37 34.0557 37H46.5292V39H34.0557Z" fill="#3a823f"/>
</svg>
