<svg width="70" height="70" viewBox="0 0 70 70" fill="none" xmlns="http://www.w3.org/2000/svg">
<circle cx="35" cy="35" r="35" fill="#3a823f" fill-opacity="0.07"/>
<path d="M28.8405 39L34.0557 34" stroke="#3a823f" stroke-width="2" stroke-linecap="round" stroke-linejoin="round"/>
<path d="M35.0988 34C35.6748 34 36.1418 33.5523 36.1418 33C36.1418 32.4477 35.6748 32 35.0988 32C34.5227 32 34.0557 32.4477 34.0557 33C34.0557 33.5523 34.5227 34 35.0988 34Z" stroke="#3a823f" stroke-width="2" stroke-linecap="round" stroke-linejoin="round"/>
<path d="M40.314 39C40.89 39 41.357 38.5523 41.357 38C41.357 37.4477 40.89 37 40.314 37C39.7379 37 39.2709 37.4477 39.2709 38C39.2709 38.5523 39.7379 39 40.314 39Z" stroke="#3a823f" stroke-width="2" stroke-linecap="round" stroke-linejoin="round"/>
<path d="M41.357 37L47.6152 31M36.1418 34L39.2709 37L36.1418 34Z" stroke="#3a823f" stroke-width="2" stroke-linecap="round" stroke-linejoin="round"/>
</svg>
