<svg width="52" height="51" viewBox="0 0 52 51" fill="none" xmlns="http://www.w3.org/2000/svg">
<path d="M26.4212 51C40.548 51 52 39.5833 52 25.5C52 11.4167 40.548 0 26.4212 0C12.2945 0 0.842529 11.4167 0.842529 25.5C0.842529 39.5833 12.2945 51 26.4212 51Z" fill="#4E647E"/>
<path d="M40.1143 21.853C40.1143 18.4655 37.367 15.7267 33.969 15.7267H18.2661C14.8681 15.7267 12.1208 18.4655 12.1208 21.853V29.147C12.1208 32.5345 14.8681 35.2733 18.2661 35.2733H33.969C37.367 35.2733 40.1143 32.5345 40.1143 29.147V21.853ZM30.8747 26.0478L23.833 29.5218C23.5583 29.6659 22.6184 29.4785 22.6184 29.1614V22.026C22.6184 21.7089 23.5583 21.5071 23.8474 21.6656L30.5855 25.327C30.8747 25.4856 31.1639 25.8892 30.8747 26.0478Z" fill="white"/>
</svg>
