<svg width="50" height="49" viewBox="0 0 50 49" fill="none" xmlns="http://www.w3.org/2000/svg">
<path d="M25.487 49C39.0251 49 50 38.031 50 24.5C50 10.969 39.0251 0 25.487 0C11.9489 0 0.974121 10.969 0.974121 24.5C0.974121 38.031 11.9489 49 25.487 49Z" fill="white"/>
<path d="M38.6098 20.996C38.6098 17.7414 35.9769 15.11 32.7206 15.11H17.6719C14.4155 15.11 11.7827 17.7414 11.7827 20.996V28.004C11.7827 31.2586 14.4155 33.8901 17.6719 33.8901H32.7206C35.9769 33.8901 38.6098 31.2586 38.6098 28.004V20.996ZM29.7552 25.0263L23.0068 28.3641C22.7436 28.5025 21.8428 28.3225 21.8428 28.0178V21.1622C21.8428 20.8576 22.7436 20.6637 23.0207 20.816L29.478 24.3338C29.7552 24.4862 30.0323 24.8739 29.7552 25.0263Z" fill="#4E647E"/>
</svg>
